PathFileType	4	(X/Y/Z)	/Users/itak/Documents/Research/Walk-IL/dataset/trc/00048_00006.trc
DataRate	CameraRate	NumFrames	NumMarkers	Units	OrigDataRate	OrigDataStartFrame	OrigNumFrames
100.000000	100.000000	4	53	mm	100.000000	229	458
Frame#	Time	RPSI			LPSI			L3			STRN			T10			C7			CLAV			RBAK			LBAK			LSHO			LUPA			LAEL			LAOL			LWTS			LWPS			LFRA			LIFD			LHPS			LHTS			RSHO			RUPA			RAEL			RAOL			RWTS			RWPS			RFRA			RIFD			RHTS			RHPS			RBHD			LFHD			RFHD			LBHD			LHIP			RHIP			RASI			LASI			LKNE			LTHI			LANK			LTIP			LTOE			LMT1			LMT5			LHEE			RKNE			RTHI			RANK			RTIP			RTOE			RMT1			RMT5			RHEE			
		X1	Y1	Z1	X2	Y2	Z2	X3	Y3	Z3	X4	Y4	Z4	X5	Y5	Z5	X6	Y6	Z6	X7	Y7	Z7	X8	Y8	Z8	X9	Y9	Z9	X10	Y10	Z10	X11	Y11	Z11	X12	Y12	Z12	X13	Y13	Z13	X14	Y14	Z14	X15	Y15	Z15	X16	Y16	Z16	X17	Y17	Z17	X18	Y18	Z18	X19	Y19	Z19	X20	Y20	Z20	X21	Y21	Z21	X22	Y22	Z22	X23	Y23	Z23	X24	Y24	Z24	X25	Y25	Z25	X26	Y26	Z26	X27	Y27	Z27	X28	Y28	Z28	X29	Y29	Z29	X30	Y30	Z30	X31	Y31	Z31	X32	Y32	Z32	X33	Y33	Z33	X34	Y34	Z34	X35	Y35	Z35	X36	Y36	Z36	X37	Y37	Z37	X38	Y38	Z38	X39	Y39	Z39	X40	Y40	Z40	X41	Y41	Z41	X42	Y42	Z42	X43	Y43	Z43	X44	Y44	Z44	X45	Y45	Z45	X46	Y46	Z46	X47	Y47	Z47	X48	Y48	Z48	X49	Y49	Z49	X50	Y50	Z50	X51	Y51	Z51	X52	Y52	Z52	X53	Y53	Z53	

230	2.29	205.9461059570312	1027.705688476562	-154.5044250488281	188.5675506591797	1010.603454589844	-329.2428283691406	204.6052398681641	1082.576171875	-246.3486785888672	472.3505554199219	1259.107788085938	-267.3795776367188	201.3369903564453	1216.882934570312	-250.7211761474609	278.0201721191406	1477.699462890625	-265.1377258300781	209.4189300537109	1346.580932617188	-182.1580047607422	450.9695739746094	1375.690307617188	-271.3032836914062	248.7992858886719	1439.79736328125	-362.9008483886719	347.2702941894531	1437.609130859375	-440.5564575195312	314.4497680664062	1314.123657226562	-518.3981323242188	316.6131591796875	1100.327758789062	-545.5894775390625	263.1194458007812	1085.570922851562	-454.1028137207031	414.2999877929688	860.8770751953125	-495.0470886230469	349.685302734375	850.637451171875	-548.0360107421875	334.4889221191406	990.9212646484375	-556.4853515625	426.2852172851562	674.7770385742188	-480.4333190917969	383.1272583007812	770.4094848632812	-549.2054443359375	436.4717712402344	778.7846069335938	-502.291259765625	349.0653381347656	1441.831787109375	-94.11391448974609	336.3600769042969	1377.059448242188	-28.00261688232422	297.5484924316406	1121.85400390625	34.32287216186523	311.4866027832031	1087.7109375	-58.99835586547852	452.1662902832031	876.1670532226562	7.73764181137085	388.4732666015625	858.20263671875	64.40736389160156	313.656494140625	1040.294555664062	50.70546340942383	471.6937561035156	693.3140869140625	-9.99412727355957	488.3719787597656	779.2815551757812	10.09080600738525	436.9018859863281	771.77392578125	67.88385009765625	328.3811950683594	1655.888061523438	-327.7078247070312	499.3751220703125	1671.933959960938	-196.4934692382812	505.7149658203125	1680.81005859375	-322.451416015625	331.3721618652344	1638.988403320312	-190.78955078125	289.7344055175781	944.8125610351562	-421.6377868652344	267.7223205566406	956.5922241210938	-76.07987213134766	392.8609008789062	962.6466674804688	-100.1951370239258	401.1695861816406	952.1871948242188	-366.9931945800781	480.377197265625	509.462646484375	-361.3013305664062	411.8519592285156	635.2060546875	-406.0996704101562	408.2965698242188	42.0008659362793	-376.2684326171875	443.6255798339844	258.9611511230469	-382.7840576171875	611.097900390625	37.81611633300781	-353.4052124023438	561.04345703125	37.64332580566406	-305.3101806640625	515.10498046875	33.24803161621094	-408.6107177734375	350.5508728027344	43.42173004150391	-302.9171447753906	288.8948974609375	503.8173217773438	-97.70161437988281	332.0359802246094	773.4232788085938	-72.98352813720703	-23.26232147216797	112.8448944091797	-88.46306610107422	215.8035888671875	396.1995544433594	-85.97128295898438	152.8172149658203	37.07363510131836	-161.7563018798828	99.59290313720703	59.20876312255859	-188.4450073242188	85.86105346679688	55.07235336303711	-91.008056640625	-66.58974456787109	147.3017883300781	-136.9528656005859	
231	2.3	196.7597808837891	1026.792602539062	-153.1596527099609	180.2430114746094	1009.770263671875	-328.1343078613281	195.9163665771484	1081.884155273438	-244.6819000244141	464.5424194335938	1257.558227539062	-265.1577758789062	193.4224243164062	1216.0712890625	-248.2407073974609	270.8866577148438	1476.722045898438	-262.2874450683594	202.0382537841797	1345.802856445312	-179.2951965332031	443.51416015625	1374.21826171875	-269.066650390625	241.2861175537109	1438.930908203125	-360.0373840332031	339.4981079101562	1436.51611328125	-437.9864501953125	305.8373413085938	1313.22607421875	-515.7208251953125	306.80615234375	1099.548706054688	-543.3455810546875	254.2339782714844	1084.754150390625	-451.36279296875	404.9682006835938	860.1279907226562	-493.9034118652344	339.7149658203125	849.8146362304688	-546.1160278320312	324.441162109375	990.1044921875	-554.4794311523438	417.269775390625	674.065673828125	-479.3608093261719	373.1844482421875	769.6174926757812	-547.617431640625	427.1259460449219	778.0684814453125	-501.3830871582031	342.3182983398438	1440.554931640625	-91.56284332275391	329.8785095214844	1375.674560546875	-25.44659614562988	292.0737915039062	1120.33251953125	37.29097747802734	305.3602294921875	1086.2255859375	-56.14697647094727	447.6204528808594	875.35498046875	9.214348793029785	384.3107299804688	856.9644775390625	66.30895233154297	308.6825256347656	1038.757568359375	53.52266693115234	467.8746337890625	692.6591186523438	-8.947759628295898	484.27392578125	778.644287109375	11.16214656829834	433.21923828125	770.7654418945312	69.28382873535156	321.1902770996094	1654.460327148438	-325.4065551757812	492.435546875	1670.697387695312	-194.5609436035156	498.5393676757812	1679.415161132812	-320.5452270507812	324.4730529785156	1637.745483398438	-188.4626159667969	282.0094909667969	944.1567993164062	-420.0743103027344	257.8015441894531	955.5668334960938	-74.62358856201172	383.1396179199219	961.3601684570312	-97.95709991455078	393.0205993652344	951.3785400390625	-364.6907348632812	475.2890319824219	510.1624755859375	-359.6299133300781	406.1488647460938	635.37744140625	-404.6190185546875	408.50732421875	42.07758712768555	-376.1882629394531	441.3197631835938	259.4371643066406	-382.0783386230469	611.2833251953125	37.68534088134766	-353.3939208984375	561.268798828125	37.58735656738281	-305.2854614257812	515.317138671875	33.21437454223633	-408.5941162109375	350.6670532226562	43.27882766723633	-302.8881225585938	275.2375793457031	503.2720031738281	-96.90283966064453	321.0404357910156	772.4141845703125	-71.28880310058594	-28.93580436706543	106.3247909545898	-89.30976104736328	203.6788787841797	394.6968078613281	-85.57273864746094	150.4057006835938	37.38307571411133	-161.2715759277344	96.34883880615234	56.98025131225586	-188.3448638916016	82.35617065429688	52.71753692626953	-90.88900756835938	-73.36913299560547	139.4836578369141	-138.0484466552734	
232	2.31	187.2979736328125	1025.902587890625	-151.8911895751953	171.7356109619141	1008.960693359375	-327.0877990722656	187.0088195800781	1081.28857421875	-243.0901641845703	456.5941162109375	1255.988647460938	-262.763671875	185.392578125	1215.337158203125	-245.818603515625	263.7169494628906	1475.802734375	-259.3818359375	194.5317230224609	1345.095703125	-176.4359588623047	435.973876953125	1372.738159179688	-266.6824645996094	233.7732238769531	1438.133422851562	-357.13916015625	331.7616271972656	1435.439208984375	-435.3298950195312	297.2546691894531	1312.3564453125	-512.9644165039062	296.9574584960938	1098.79296875	-541.0109252929688	245.2675476074219	1083.976806640625	-448.5654907226562	395.6048583984375	859.43603515625	-492.5633850097656	329.7270812988281	849.0090942382812	-544.0086669921875	314.3792724609375	989.3084106445312	-552.3460083007812	408.2668151855469	673.427978515625	-477.9925231933594	363.2509460449219	768.8482666015625	-545.7891235351562	417.7714538574219	777.4157104492188	-500.2215881347656	335.4352722167969	1439.282836914062	-88.91515350341797	323.23583984375	1374.275756835938	-22.8080997467041	286.4670104980469	1118.786254882812	40.32245254516602	299.0778503417969	1084.712158203125	-53.22955703735352	442.9283752441406	874.5357666015625	10.73093414306641	380.0293884277344	855.7150268554688	68.26463317871094	303.5531616210938	1037.199340820312	56.38996887207031	463.9300231933594	692.002685546875	-7.851168155670166	480.0472106933594	778.0109252929688	12.28622245788574	429.4089965820312	769.7570190429688	70.73133850097656	313.9938049316406	1653.052368164062	-323.0055541992188	485.5059509277344	1669.462646484375	-192.5485687255859	491.3584594726562	1678.015502929688	-318.560791015625	317.5676879882812	1636.524291992188	-186.0379791259766	274.1508178710938	943.5103759765625	-418.4828186035156	247.5768890380859	954.55908203125	-73.21084594726562	373.0928344726562	960.1765747070312	-95.62403106689453	384.7114868164062	950.5697631835938	-362.2665100097656	469.7662048339844	510.8480529785156	-357.8914794921875	400.1863403320312	635.5536499023438	-403.0379638671875	408.8333435058594	42.1845817565918	-376.1227416992188	438.8218078613281	259.9659729003906	-381.380615234375	611.568115234375	37.52005004882812	-353.4200744628906	561.6077880859375	37.53838729858398	-305.2994384765625	515.6375122070312	33.17128753662109	-408.6146850585938	350.9219055175781	43.14548873901367	-302.8931579589844	262.3239135742188	502.7159118652344	-96.01795196533203	310.091796875	771.4744873046875	-69.49139404296875	-33.75598907470703	99.96380615234375	-90.23609924316406	192.3919830322266	393.14990234375	-85.13593292236328	148.9018096923828	37.69780349731445	-160.83740234375	93.97563934326172	55.02756500244141	-188.3358917236328	79.66518402099609	50.67879104614258	-90.82288360595703	-79.29232025146484	131.7934875488281	-139.2384796142578	
233	2.32	177.5648498535156	1025.072265625	-150.7041473388672	163.0512542724609	1008.201416015625	-326.0924072265625	177.8874359130859	1080.804809570312	-241.5719909667969	448.5106201171875	1254.421875	-260.2033081054688	177.2464904785156	1214.703125	-243.4586944580078	256.5114135742188	1474.958374023438	-256.43798828125	186.9064636230469	1344.47607421875	-173.5913543701172	428.3523864746094	1371.270751953125	-264.1586608886719	226.2662658691406	1437.420166015625	-354.2201538085938	324.0679626464844	1434.394287109375	-432.5988464355469	288.7133483886719	1311.528686523438	-510.1433410644531	287.0929260253906	1098.074951171875	-538.5947265625	236.2260894775391	1083.25341796875	-445.7285766601562	386.2214050292969	858.807861328125	-491.0312194824219	319.7422485351562	848.2351684570312	-541.7306518554688	304.3300476074219	988.5488891601562	-550.0972900390625	399.2701416015625	672.8670654296875	-476.3398742675781	353.3407897949219	768.1126708984375	-543.7353515625	408.4151916503906	776.8308715820312	-498.8124694824219	328.4145812988281	1438.038452148438	-86.18116760253906	316.4310607910156	1372.888061523438	-20.09613990783691	280.7320251464844	1117.236938476562	43.40089797973633	292.6356201171875	1083.195556640625	-50.2635383605957	438.06884765625	873.7200317382812	12.28504943847656	375.6180725097656	854.4764404296875	70.27520751953125	298.2604370117188	1035.64599609375	59.28755569458008	459.8342895507812	691.3526611328125	-6.689730167388916	475.6702880859375	777.3914794921875	13.46987152099609	425.4462280273438	768.7675170898438	72.23321533203125	306.7952880859375	1651.687622070312	-320.5155944824219	478.5882873535156	1668.244506835938	-190.4627838134766	484.1760864257812	1676.627075195312	-316.5032958984375	310.6585388183594	1635.345458984375	-183.5265502929688	266.1312561035156	942.8850708007812	-416.8617858886719	237.096923828125	953.5864868164062	-71.84288787841797	362.7554321289062	959.1112670898438	-93.21340179443359	376.2318725585938	949.7673950195312	-359.7359008789062	463.7776794433594	511.5227966308594	-356.1315612792969	393.9156188964844	635.737548828125	-401.3978881835938	409.3009338378906	42.33889007568359	-376.0883178710938	436.1304321289062	260.5651550292969	-380.7177429199219	611.9676513671875	37.33016204833984	-353.4785461425781	562.0750732421875	37.50555038452148	-305.3570861816406	516.0883178710938	33.12797927856445	-408.6780090332031	351.3440856933594	43.03806686401367	-302.951904296875	250.2181396484375	502.1458435058594	-95.04241180419922	299.1939392089844	770.6063842773438	-67.58610534667969	-37.84816741943359	93.90421295166016	-91.24536895751953	181.9651489257812	391.5726013183594	-84.66868591308594	148.0632019042969	37.98156356811523	-160.4850463867188	92.27165222167969	53.36024856567383	-188.4264678955078	77.5943603515625	48.97524261474609	-90.82395172119141	-84.44431304931641	124.3946151733398	-140.5250091552734	
